<?xml version="1.0" encoding="utf-8"?>
<!-- Generator: Adobe Illustrator 21.1.0, SVG Export Plug-In . SVG Version: 6.00 Build 0)  -->
<svg version="1.1" id="Layer_1" xmlns="http://www.w3.org/2000/svg" xmlns:xlink="http://www.w3.org/1999/xlink" x="0px" y="0px"
	 viewBox="0 0 122.9 157.8" style="enable-background:new 0 0 122.9 157.8;" xml:space="preserve">
<style type="text/css">
	.st0{fill:#000000;}
</style>
<path class="st0" d="M122.3,7.6l-7-7c-0.5-0.5-1.3-0.7-2-0.5L1.4,35.1C0.6,35.3,0,36.1,0,37v111.9c0,0.5,0.2,1,0.6,1.4l7,7
	c0.6,0.6,1.4,0.7,2.1,0.5l111.9-42c0.8-0.3,1.3-1,1.3-1.9V9C122.9,8.5,122.7,8,122.3,7.6z M114.9,5.8c1,1,2.2,2.2,3,3
	c-0.8,0.3-1.9,0.6-3,0.9V5.8z M8,152c-1.1-1.1-2.3-2.3-3.2-3.2c0.9-0.3,1.9-0.7,3.2-1.2V152z M8,145.5L4,147c0-10,0-92.7,0-106.6
	l4,4V145.5z M9.3,42.8c-0.5-0.5-2.8-2.8-4.6-4.6c9-2.8,100.8-31.5,108.2-33.8v6C87.8,18.3,10.2,42.5,9.3,42.8z M112.9,12.5v93.7
	L10,144.8V44.7L112.9,12.5z M10,153.3v-6.4c25-9.4,102.6-38.5,103.6-38.9c0.5,0.5,2.9,2.9,4.7,4.7C109.8,115.9,17.8,150.4,10,153.3z
	 M118.9,110.5l-4-4V11.9l4-1.2C118.9,19.7,118.9,96.8,118.9,110.5z M27.2,76.5l31.5-31.5c0.4-0.4,0.4-1,0-1.4c-0.4-0.4-1-0.4-1.4,0
	L25.8,75.1c-0.4,0.4-0.4,1,0,1.4C26.2,76.9,26.8,76.9,27.2,76.5z M29.3,86.6c0.4,0.4,1,0.4,1.4,0l48.9-48.9c0.4-0.4,0.4-1,0-1.4
	c-0.4-0.4-1-0.4-1.4,0L29.3,85.2C28.9,85.6,28.9,86.2,29.3,86.6z M65.2,56.7c-0.4-0.4-1-0.4-1.4,0l-21,21c-0.4,0.4-0.4,1,0,1.4
	c0.4,0.4,1,0.4,1.4,0l21-21C65.6,57.7,65.6,57.1,65.2,56.7z M64.2,107.6c0.4,0.4,1,0.4,1.4,0l25.1-25.1c0.4-0.4,0.4-1,0-1.4
	c-0.4-0.4-1-0.4-1.4,0l-25.1,25.1C63.8,106.6,63.8,107.2,64.2,107.6z M63,115.7c0.4,0.4,1,0.4,1.4,0l36.2-36.1c0.4-0.4,0.4-1,0-1.4
	c-0.4-0.4-1-0.4-1.4,0L63,114.3C62.6,114.7,62.6,115.3,63,115.7z"/>
</svg>
