<?xml version="1.0" encoding="utf-8"?>
<!-- Generator: Adobe Illustrator 21.1.0, SVG Export Plug-In . SVG Version: 6.00 Build 0)  -->
<svg version="1.1" id="Layer_1" xmlns="http://www.w3.org/2000/svg" xmlns:xlink="http://www.w3.org/1999/xlink" x="0px" y="0px"
	 viewBox="0 0 126.5 108.2" style="enable-background:new 0 0 126.5 108.2;" xml:space="preserve">
<style type="text/css">
	.st0{fill:#00679C;}
	.st1{fill:#009EE2;}
	.st2{fill:#F0EEF0;}
</style>
<g>
	<path class="st0" d="M64.6,84.7c0,5.4-1.6,8.6-4.7,9.7c-3.2,1.1-7.5-0.3-13.5-3.4L30,82.6v15.9L17.1,91V43.1L46.4,59
		C52.5,62.4,57,66.5,60,70.8C63,75.2,64.6,79.9,64.6,84.7L64.6,84.7z M30,72l15.1,7.7c2,1,3.5,1.5,4.6,1c1.1-0.4,1.7-1.6,1.7-3.5
		c0-3.2-1.7-6-5.4-7.9L30,61V72z"/>
	<path class="st1" d="M111.3,44.4l-17.1,9.2l-51.7-8.8L42.2,45c5.8,2.7,10.1,4.7,12.9,6.2l21.8,11.7l-11.6,6.2L17,43.2L34,34
		l51.1,8.6l0.2-0.1c-5.2-2.4-9.2-4.5-12.2-6.1L51.3,24.7l11.6-6.2L111.3,44.4z"/>
	<path class="st0" d="M94.1,53.6l16.9-9.5l-10.9,53.5l-19.4,10.6L65.2,69.1l11.7-6.4c1.6,7.7,7.5,23.9,10.1,31.9
		c0.1-1.3,0.4-3,0.7-5.1c0.4-2.1,0.8-3.7,1-5L94.1,53.6z"/>
</g>
<polygon class="st2" points="117.1,96.8 117.1,36.6 63.8,7.6 9.8,37 9.8,96.8 3.2,93.2 3.2,40.6 0,42.4 0,34.9 58,3.3 63.8,0 
	63.8,0.1 63.9,0 70.8,3.8 70.7,3.8 126.5,34.2 126.5,41.7 123.7,40.2 123.7,93.2 "/>
</svg>
