<?xml version="1.0" encoding="utf-8"?>
<!-- Generator: Adobe Illustrator 21.1.0, SVG Export Plug-In . SVG Version: 6.00 Build 0)  -->
<svg version="1.1" id="Layer_1" xmlns="http://www.w3.org/2000/svg" xmlns:xlink="http://www.w3.org/1999/xlink" x="0px" y="0px"
	 viewBox="0 0 354.4 113.2" style="enable-background:new 0 0 354.4 113.2;" xml:space="preserve">
<style type="text/css">
	.st0{fill-rule:evenodd;clip-rule:evenodd;fill:#006DA0;}
	.st1{fill-rule:evenodd;clip-rule:evenodd;fill:#00AEEF;}
	.st2{fill-rule:evenodd;clip-rule:evenodd;fill:#0095DA;}
	.st3{fill-rule:evenodd;clip-rule:evenodd;fill:#EAE8E9;}
</style>
<g>
	<g>
		<path class="st0" d="M76.9,84.7c0,5.4-1.6,8.6-4.7,9.7c-3.2,1.1-7.5-0.3-13.5-3.4l-16.4-8.5v15.9L29.4,91V43.1l29.3,15.9
			c6.1,3.3,10.6,7.4,13.6,11.8C75.4,75.2,76.9,79.9,76.9,84.7L76.9,84.7z M42.3,72l15.1,7.7c2,1,3.5,1.5,4.6,1
			c1.1-0.4,1.7-1.6,1.7-3.5c0-3.2-1.7-6-5.4-7.9L42.3,61V72z"/>
		<path class="st1" d="M123.6,44.4l-17.1,9.2l-51.7-8.8L54.5,45c5.8,2.7,10.1,4.7,12.9,6.2l21.8,11.7l-11.6,6.2L29.3,43.2L46.3,34
			l51.1,8.6l0.2-0.1c-5.2-2.4-9.2-4.5-12.2-6.1L63.6,24.7l11.6-6.2L123.6,44.4z"/>
		<path class="st0" d="M106.5,53.6l16.9-9.5l-10.9,53.5L93,108.2L77.5,69.1l11.7-6.4c1.6,7.7,7.5,23.9,10.1,31.9
			c0.1-1.3,0.4-3,0.7-5.1c0.4-2.1,0.8-3.7,1-5L106.5,53.6z"/>
	</g>
	<g>
		<path class="st2" d="M161.2,80c0,2.2-0.8,4-2.4,5.3c-1.6,1.3-3.9,1.9-6.7,1.9c-2.6,0-5-0.5-7-1.5v-4.9c1.7,0.7,3.1,1.3,4.3,1.6
			c1.2,0.3,2.2,0.5,3.2,0.5c1.2,0,2-0.2,2.7-0.7c0.6-0.4,0.9-1.1,0.9-2c0-0.5-0.1-0.9-0.4-1.3c-0.3-0.4-0.7-0.7-1.2-1.1
			c-0.5-0.4-1.6-0.9-3.2-1.7c-1.5-0.7-2.7-1.4-3.4-2.1c-0.8-0.7-1.4-1.4-1.8-2.3c-0.5-0.9-0.7-1.9-0.7-3.1c0-2.2,0.7-3.9,2.2-5.2
			c1.5-1.3,3.5-1.9,6.2-1.9c1.3,0,2.5,0.2,3.7,0.5c1.2,0.3,2.4,0.7,3.7,1.3l-1.7,4.1c-1.3-0.5-2.4-0.9-3.3-1.1
			c-0.9-0.2-1.7-0.3-2.6-0.3c-1,0-1.8,0.2-2.3,0.7c-0.5,0.5-0.8,1.1-0.8,1.8c0,0.5,0.1,0.9,0.3,1.2c0.2,0.3,0.6,0.7,1,1
			c0.5,0.3,1.6,0.9,3.3,1.7c2.3,1.1,3.9,2.2,4.8,3.3C160.7,77,161.2,78.4,161.2,80L161.2,80z M180,86.9h-14.3V62.1H180v4.3h-9v5.5
			h8.4v4.3h-8.4v6.4h9V86.9L180,86.9z M190.4,73.1h1.7c1.7,0,2.9-0.3,3.7-0.8c0.8-0.6,1.2-1.4,1.2-2.6c0-1.2-0.4-2-1.2-2.5
			c-0.8-0.5-2.1-0.7-3.8-0.7h-1.6V73.1L190.4,73.1z M190.4,77.4v9.5h-5.3V62.1h7.2c3.4,0,5.9,0.6,7.5,1.8c1.6,1.2,2.4,3.1,2.4,5.6
			c0,1.5-0.4,2.8-1.2,3.9c-0.8,1.1-1.9,2-3.4,2.7c3.7,5.6,6.2,9.2,7.3,10.8h-5.8l-5.9-9.5H190.4L190.4,77.4z M222.2,62.1h5.3
			l-8.4,24.8h-5.7L205,62.1h5.3l4.7,14.8c0.3,0.9,0.5,1.9,0.8,3c0.3,1.2,0.5,2,0.5,2.4c0.1-1,0.5-2.9,1.3-5.5L222.2,62.1L222.2,62.1
			z M230.7,86.9V62.1h5.3v24.8H230.7L230.7,86.9z M252.7,66.1c-2,0-3.5,0.7-4.6,2.2c-1.1,1.5-1.6,3.6-1.6,6.2c0,5.5,2.1,8.3,6.2,8.3
			c1.7,0,3.9-0.4,6.3-1.3V86c-2,0.9-4.3,1.3-6.8,1.3c-3.6,0-6.4-1.1-8.3-3.3c-1.9-2.2-2.9-5.3-2.9-9.4c0-2.6,0.5-4.8,1.4-6.8
			c0.9-1.9,2.3-3.4,4-4.5c1.8-1,3.8-1.6,6.2-1.6c2.4,0,4.8,0.6,7.3,1.8l-1.7,4.3c-0.9-0.4-1.9-0.8-2.8-1.2
			C254.6,66.3,253.6,66.1,252.7,66.1L252.7,66.1z M278.6,86.9h-14.3V62.1h14.3v4.3h-9v5.5h8.4v4.3h-8.4v6.4h9V86.9z"/>
		<path class="st0" d="M292.8,86.9V62.1h5.3v20.5h10.1v4.3H292.8L292.8,86.9z M320.1,83.1c0.9,0,2-0.2,3.3-0.6v3.9
			c-1.3,0.6-2.9,0.9-4.8,0.9c-2.1,0-3.6-0.5-4.5-1.6c-0.9-1-1.4-2.6-1.4-4.7v-9.2h-2.5v-2.2l2.9-1.7l1.5-4h3.3v4h5.3v3.9h-5.3v9.1
			c0,0.7,0.2,1.3,0.6,1.6C318.9,82.9,319.4,83.1,320.1,83.1L320.1,83.1z M333.2,87.2c-2.2,0-4-0.9-5.3-2.6c-1.3-1.7-1.9-4.1-1.9-7.2
			c0-3.1,0.6-5.5,1.9-7.3c1.3-1.7,3.1-2.6,5.4-2.6c2.4,0,4.2,0.9,5.5,2.8h0.2c-0.3-1.4-0.4-2.7-0.4-3.8v-6.1h5.2v26.4h-4l-1-2.5
			h-0.2C337.4,86.3,335.6,87.2,333.2,87.2L333.2,87.2z M335,83.1c1.3,0,2.3-0.4,2.9-1.2c0.6-0.8,1-2.1,1-3.9v-0.6
			c0-2-0.3-3.5-0.9-4.4c-0.6-0.9-1.6-1.3-3.1-1.3c-1.2,0-2.1,0.5-2.7,1.5c-0.6,1-1,2.4-1,4.3c0,1.9,0.3,3.3,1,4.2
			C332.9,82.6,333.8,83.1,335,83.1L335,83.1z M348.5,84.5c0-1,0.3-1.7,0.8-2.2c0.5-0.5,1.2-0.7,2.2-0.7c0.9,0,1.7,0.2,2.2,0.7
			c0.5,0.5,0.8,1.2,0.8,2.1c0,0.9-0.3,1.6-0.8,2.1c-0.5,0.5-1.2,0.8-2.2,0.8c-1,0-1.7-0.2-2.2-0.8C348.7,86.1,348.5,85.4,348.5,84.5
			z"/>
	</g>
	<polygon class="st3" points="129.4,96.8 129.4,36.6 76.1,7.6 22.1,37 22.1,96.8 15.5,93.2 15.5,40.6 12.3,42.4 12.3,34.9 70.3,3.3 
		76.1,0 76.1,0.1 76.3,0 83.1,3.8 83,3.8 138.8,34.2 138.8,41.7 136,40.2 136,93.2 	"/>
	<rect y="110.3" class="st3" width="153.8" height="2.8"/>
</g>
</svg>
