<?xml version="1.0" encoding="utf-8"?>
<!-- Generator: Adobe Illustrator 21.1.0, SVG Export Plug-In . SVG Version: 6.00 Build 0)  -->
<svg version="1.1" id="Layer_1" xmlns="http://www.w3.org/2000/svg" xmlns:xlink="http://www.w3.org/1999/xlink" x="0px" y="0px"
	 viewBox="0 0 153.8 159" style="enable-background:new 0 0 153.8 159;" xml:space="preserve">
<style type="text/css">
	.st0{fill-rule:evenodd;clip-rule:evenodd;fill:#00679C;}
	.st1{fill-rule:evenodd;clip-rule:evenodd;fill:#009EE2;}
	.st2{fill-rule:evenodd;clip-rule:evenodd;fill:#008AD1;}
	.st3{fill-rule:evenodd;clip-rule:evenodd;fill:#F0EEF0;}
</style>
<g>
	<g>
		<path class="st0" d="M77.6,84.7c0,5.4-1.6,8.6-4.7,9.7c-3.2,1.1-7.5-0.3-13.5-3.4L43,82.6v15.9L30.1,91V43.1l29.3,15.9
			C65.5,62.4,70,66.5,73,70.8C76,75.2,77.6,79.9,77.6,84.7L77.6,84.7z M43,72l15.1,7.7c2,1,3.5,1.5,4.6,1c1.1-0.4,1.7-1.6,1.7-3.5
			c0-3.2-1.7-6-5.4-7.9L43,61V72z"/>
		<path class="st1" d="M124.3,44.4l-17.1,9.2l-51.7-8.8L55.2,45c5.8,2.7,10.1,4.7,12.9,6.2l21.8,11.7l-11.6,6.2L30,43.2L47,34
			l51.1,8.6l0.2-0.1c-5.2-2.4-9.2-4.5-12.2-6.1L64.3,24.7l11.6-6.2L124.3,44.4z"/>
		<path class="st0" d="M107.1,53.6l16.9-9.5l-10.9,53.5l-19.4,10.6L78.2,69.1l11.7-6.4c1.6,7.7,7.5,23.9,10.1,31.9
			c0.1-1.3,0.4-3,0.7-5.1c0.4-2.1,0.8-3.7,1-5L107.1,53.6z"/>
	</g>
	<g>
		<path class="st2" d="M12.1,144.3c0,1.6-0.6,2.9-1.8,3.9c-1.2,0.9-2.8,1.4-4.9,1.4c-1.9,0-3.7-0.4-5.1-1.1v-3.6
			c1.2,0.5,2.3,0.9,3.1,1.2c0.8,0.2,1.6,0.3,2.3,0.3c0.8,0,1.5-0.2,1.9-0.5c0.5-0.3,0.7-0.8,0.7-1.4c0-0.4-0.1-0.7-0.3-1
			c-0.2-0.3-0.5-0.5-0.9-0.8c-0.4-0.3-1.2-0.7-2.4-1.2c-1.1-0.5-1.9-1-2.5-1.5c-0.6-0.5-1-1-1.3-1.7c-0.3-0.6-0.5-1.4-0.5-2.2
			c0-1.6,0.5-2.9,1.6-3.8c1.1-0.9,2.6-1.4,4.5-1.4c0.9,0,1.8,0.1,2.7,0.3c0.9,0.2,1.8,0.5,2.7,0.9l-1.2,3c-1-0.4-1.8-0.7-2.4-0.8
			c-0.6-0.2-1.3-0.2-1.9-0.2c-0.7,0-1.3,0.2-1.7,0.5c-0.4,0.3-0.6,0.8-0.6,1.3c0,0.3,0.1,0.6,0.2,0.9c0.2,0.3,0.4,0.5,0.8,0.7
			c0.3,0.2,1.2,0.7,2.4,1.3c1.7,0.8,2.9,1.6,3.5,2.4C11.8,142.1,12.1,143.1,12.1,144.3L12.1,144.3z M25.9,149.4H15.4v-18.2h10.5v3.2
			h-6.6v4h6.2v3.2h-6.2v4.7h6.6V149.4L25.9,149.4z M33.5,139.3h1.2c1.2,0,2.1-0.2,2.7-0.6c0.6-0.4,0.9-1,0.9-1.9
			c0-0.9-0.3-1.5-0.9-1.8c-0.6-0.4-1.5-0.5-2.8-0.5h-1.2V139.3L33.5,139.3z M33.5,142.4v7h-3.9v-18.2h5.3c2.5,0,4.3,0.4,5.5,1.4
			c1.2,0.9,1.8,2.3,1.8,4.1c0,1.1-0.3,2-0.9,2.9c-0.6,0.8-1.4,1.5-2.5,2c2.7,4.1,4.5,6.7,5.3,7.9h-4.3l-4.3-7H33.5L33.5,142.4z
			 M56.8,131.2h3.9l-6.2,18.2h-4.2l-6.2-18.2h3.9l3.4,10.8c0.2,0.6,0.4,1.4,0.6,2.2c0.2,0.9,0.3,1.4,0.4,1.8c0.1-0.8,0.4-2.1,0.9-4
			L56.8,131.2L56.8,131.2z M63,149.4v-18.2h3.9v18.2H63L63,149.4z M79.2,134.1c-1.5,0-2.6,0.5-3.4,1.6c-0.8,1.1-1.2,2.6-1.2,4.6
			c0,4.1,1.5,6.1,4.6,6.1c1.3,0,2.8-0.3,4.6-1v3.2c-1.5,0.6-3.2,0.9-5,0.9c-2.6,0-4.7-0.8-6.1-2.4c-1.4-1.6-2.1-3.9-2.1-6.9
			c0-1.9,0.3-3.5,1-5c0.7-1.4,1.7-2.5,3-3.3c1.3-0.8,2.8-1.1,4.5-1.1c1.8,0,3.5,0.4,5.3,1.3l-1.2,3.1c-0.7-0.3-1.4-0.6-2.1-0.8
			C80.5,134.3,79.8,134.1,79.2,134.1L79.2,134.1z M98.2,149.4H87.7v-18.2h10.5v3.2h-6.6v4h6.2v3.2h-6.2v4.7h6.6V149.4z"/>
		<path class="st0" d="M108.6,149.4v-18.2h3.9v15h7.4v3.2H108.6L108.6,149.4z M128.5,146.6c0.7,0,1.5-0.1,2.4-0.4v2.8
			c-0.9,0.4-2.1,0.6-3.5,0.6c-1.5,0-2.6-0.4-3.3-1.2c-0.7-0.8-1-1.9-1-3.5v-6.7h-1.8v-1.6l2.1-1.3l1.1-2.9h2.4v3h3.9v2.9h-3.9v6.7
			c0,0.5,0.2,0.9,0.5,1.2C127.6,146.5,128,146.6,128.5,146.6L128.5,146.6z M138.1,149.6c-1.6,0-2.9-0.6-3.9-1.9
			c-0.9-1.3-1.4-3-1.4-5.3c0-2.3,0.5-4.1,1.4-5.3c1-1.3,2.3-1.9,3.9-1.9c1.7,0,3.1,0.7,4,2h0.1c-0.2-1-0.3-2-0.3-2.8V130h3.8v19.4
			H143l-0.7-1.8h-0.2C141.2,148.9,139.9,149.6,138.1,149.6L138.1,149.6z M139.4,146.6c1,0,1.7-0.3,2.1-0.8c0.4-0.6,0.7-1.5,0.7-2.9
			v-0.4c0-1.5-0.2-2.6-0.7-3.2c-0.5-0.6-1.2-1-2.2-1c-0.8,0-1.5,0.4-2,1.1c-0.5,0.7-0.7,1.8-0.7,3.1c0,1.4,0.2,2.4,0.7,3.1
			C137.9,146.2,138.6,146.6,139.4,146.6L139.4,146.6z M149.3,147.6c0-0.7,0.2-1.2,0.6-1.6c0.4-0.4,0.9-0.5,1.6-0.5
			c0.7,0,1.2,0.2,1.6,0.5c0.4,0.4,0.6,0.9,0.6,1.6c0,0.7-0.2,1.2-0.6,1.5c-0.4,0.4-0.9,0.6-1.6,0.6c-0.7,0-1.2-0.2-1.6-0.6
			C149.5,148.8,149.3,148.3,149.3,147.6z"/>
	</g>
	<polygon class="st3" points="130.1,96.8 130.1,36.6 76.8,7.6 22.8,37 22.8,96.8 16.2,93.2 16.2,40.6 13,42.4 13,34.9 71,3.3 
		76.8,0 76.8,0.1 76.9,0 83.8,3.8 83.7,3.8 139.5,34.2 139.5,41.7 136.7,40.2 136.7,93.2 	"/>
	<rect y="156.1" class="st3" width="153.8" height="2.8"/>
</g>
</svg>
