<?xml version="1.0" encoding="utf-8"?>
<!-- Generator: Adobe Illustrator 21.1.0, SVG Export Plug-In . SVG Version: 6.00 Build 0)  -->
<svg version="1.1" id="Layer_1" xmlns="http://www.w3.org/2000/svg" xmlns:xlink="http://www.w3.org/1999/xlink" x="0px" y="0px"
	 viewBox="0 0 342.2 108.2" style="enable-background:new 0 0 342.2 108.2;" xml:space="preserve">
<style type="text/css">
	.st0{fill:#006DA0;}
	.st1{fill:#00AEEF;}
	.st2{fill:#0095DA;}
	.st3{fill:#EAE8E9;}
</style>
<g>
	<g>
		<path class="st0" d="M64.6,84.7c0,5.4-1.6,8.6-4.7,9.7c-3.2,1.1-7.5-0.3-13.5-3.4L30,82.5v15.9L17.1,91V43.1L46.4,59
			C52.5,62.3,57,66.4,60,70.8C63.1,75.2,64.6,79.9,64.6,84.7L64.6,84.7z M30,72l15.1,7.7c2,1,3.5,1.5,4.6,1c1.1-0.4,1.7-1.6,1.7-3.5
			c0-3.2-1.7-6-5.4-7.9L30,61V72z"/>
		<path class="st1" d="M111.3,44.4l-17.1,9.2l-51.7-8.8L42.2,45c5.8,2.7,10.1,4.7,12.9,6.2l21.8,11.7l-11.6,6.2L17,43.2L34,34
			l51.1,8.6l0.2-0.1c-5.2-2.4-9.2-4.5-12.2-6.1L51.3,24.7l11.6-6.2L111.3,44.4z"/>
		<path class="st0" d="M94.2,53.6l16.9-9.5l-10.9,53.5l-19.5,10.6L65.2,69.1l11.7-6.4c1.6,7.7,7.5,23.9,10.1,31.9
			c0.1-1.3,0.4-3,0.7-5.1c0.4-2.1,0.8-3.7,1-5L94.2,53.6z"/>
	</g>
	<g>
		<path class="st2" d="M148.9,80c0,2.2-0.8,4-2.4,5.3c-1.6,1.3-3.9,1.9-6.7,1.9c-2.6,0-5-0.5-7-1.5v-4.9c1.7,0.7,3.1,1.3,4.3,1.6
			c1.2,0.3,2.2,0.5,3.2,0.5c1.2,0,2-0.2,2.7-0.7c0.6-0.4,0.9-1.1,0.9-2c0-0.5-0.1-0.9-0.4-1.3c-0.3-0.4-0.7-0.7-1.2-1.1
			s-1.6-0.9-3.2-1.7c-1.5-0.7-2.7-1.4-3.4-2.1c-0.8-0.7-1.4-1.4-1.8-2.3c-0.5-0.9-0.7-1.9-0.7-3.1c0-2.2,0.7-3.9,2.2-5.2
			s3.5-1.9,6.2-1.9c1.3,0,2.5,0.2,3.7,0.5s2.4,0.7,3.7,1.3l-1.7,4.1c-1.3-0.5-2.4-0.9-3.3-1.1c-0.9-0.2-1.7-0.3-2.6-0.3
			c-1,0-1.8,0.2-2.3,0.7s-0.8,1.1-0.8,1.8c0,0.5,0.1,0.9,0.3,1.2c0.2,0.3,0.6,0.7,1,1c0.5,0.3,1.6,0.9,3.3,1.7
			c2.3,1.1,3.9,2.2,4.8,3.3C148.4,77,148.9,78.4,148.9,80L148.9,80z M167.7,86.9h-14.3V62.1h14.3v4.3h-9v5.5h8.4v4.3h-8.4v6.4h9
			V86.9L167.7,86.9z M178.1,73.1h1.7c1.7,0,2.9-0.3,3.7-0.8c0.8-0.6,1.2-1.4,1.2-2.6s-0.4-2-1.2-2.5s-2.1-0.7-3.8-0.7h-1.6
			L178.1,73.1L178.1,73.1z M178.1,77.4v9.5h-5.3V62.1h7.2c3.4,0,5.9,0.6,7.5,1.8s2.4,3.1,2.4,5.6c0,1.5-0.4,2.8-1.2,3.9
			s-1.9,2-3.4,2.7c3.7,5.6,6.2,9.2,7.3,10.8h-5.8l-5.9-9.5H178.1L178.1,77.4z M209.9,62.1h5.3l-8.4,24.8h-5.7l-8.4-24.8h5.3
			l4.7,14.8c0.3,0.9,0.5,1.9,0.8,3c0.3,1.2,0.5,2,0.5,2.4c0.1-1,0.5-2.9,1.3-5.5L209.9,62.1L209.9,62.1z M218.4,86.9V62.1h5.3v24.8
			L218.4,86.9L218.4,86.9z M240.4,66.1c-2,0-3.5,0.7-4.6,2.2s-1.6,3.6-1.6,6.2c0,5.5,2.1,8.3,6.2,8.3c1.7,0,3.9-0.4,6.3-1.3V86
			c-2,0.9-4.3,1.3-6.8,1.3c-3.6,0-6.4-1.1-8.3-3.3c-1.9-2.2-2.9-5.3-2.9-9.4c0-2.6,0.5-4.8,1.4-6.8c0.9-1.9,2.3-3.4,4-4.5
			c1.8-1,3.8-1.6,6.2-1.6s4.8,0.6,7.3,1.8l-1.7,4.3c-0.9-0.4-1.9-0.8-2.8-1.2C242.3,66.3,241.3,66.1,240.4,66.1L240.4,66.1z
			 M266.3,86.9H252V62.1h14.3v4.3h-9v5.5h8.4v4.3h-8.4v6.4h9V86.9z"/>
		<path class="st0" d="M280.5,86.9V62.1h5.3v20.5h10.1v4.3H280.5L280.5,86.9z M307.8,83.1c0.9,0,2-0.2,3.3-0.6v3.9
			c-1.3,0.6-2.9,0.9-4.8,0.9c-2.1,0-3.6-0.5-4.5-1.6c-0.9-1-1.4-2.6-1.4-4.7v-9.2h-2.5v-2.2l2.9-1.7l1.5-4h3.3v4h5.3v3.9h-5.3v9.1
			c0,0.7,0.2,1.3,0.6,1.6C306.6,82.9,307.1,83.1,307.8,83.1L307.8,83.1z M320.9,87.2c-2.2,0-4-0.9-5.3-2.6s-1.9-4.1-1.9-7.2
			s0.6-5.5,1.9-7.3c1.3-1.7,3.1-2.6,5.4-2.6c2.4,0,4.2,0.9,5.5,2.8h0.2c-0.3-1.4-0.4-2.7-0.4-3.8v-6.1h5.2v26.4h-4l-1-2.5h-0.2
			C325.1,86.3,323.3,87.2,320.9,87.2L320.9,87.2z M322.7,83.1c1.3,0,2.3-0.4,2.9-1.2c0.6-0.8,1-2.1,1-3.9v-0.6c0-2-0.3-3.5-0.9-4.4
			s-1.6-1.3-3.1-1.3c-1.2,0-2.1,0.5-2.7,1.5s-1,2.4-1,4.3s0.3,3.3,1,4.2C320.6,82.6,321.5,83.1,322.7,83.1L322.7,83.1z M336.2,84.5
			c0-1,0.3-1.7,0.8-2.2s1.2-0.7,2.2-0.7c0.9,0,1.7,0.2,2.2,0.7s0.8,1.2,0.8,2.1s-0.3,1.6-0.8,2.1s-1.2,0.8-2.2,0.8s-1.7-0.2-2.2-0.8
			C336.4,86.1,336.2,85.4,336.2,84.5z"/>
	</g>
	<polygon class="st3" points="117.1,96.8 117.1,36.6 63.8,7.6 9.8,37 9.8,96.8 3.2,93.2 3.2,40.6 0,42.4 0,34.9 58,3.3 63.8,0 
		63.8,0.1 64,0 70.8,3.8 70.7,3.8 126.5,34.2 126.5,41.7 123.7,40.2 123.7,93.2 	"/>
</g>
</svg>
